<svg width="18" height="19" viewBox="0 0 18 19" fill="none" xmlns="http://www.w3.org/2000/svg">
<g clip-path="url(#clip0)">
<path d="M0 9.25C0 4.27944 4.02944 0.25 9 0.25C13.9706 0.25 18 4.27944 18 9.25C18 14.2206 13.9706 18.25 9 18.25C4.02944 18.25 0 14.2206 0 9.25Z" fill="#090909"/>
<path d="M2.07112 18.25C2.68809 18.25 3.03085 17.9035 3.27078 17.0231L3.92202 14.8501H8.02656L8.68638 17.0231C8.91774 17.8941 9.27763 18.25 9.90317 18.25C10.563 18.25 11 17.8192 11 17.1448C11 16.8826 10.94 16.5735 10.8201 16.1707L7.87232 6.93588C7.50386 5.73703 6.98972 5.25 6.02142 5.25C5.04456 5.25 4.52185 5.7464 4.15338 6.93588L1.20566 16.1707C1.05998 16.6484 1 16.9388 1 17.1916C1 17.8285 1.43702 18.25 2.07112 18.25ZM4.43616 12.9676L5.92716 7.79755H6.03856L7.52099 12.9676H4.43616Z" fill="white"/>
<path d="M13.4217 9.29324V6.59324H16.0074C16.6163 6.59324 17 6.23649 17 5.69324C17 5.15 16.6163 4.79324 16.0074 4.79324H13.4217V2.20676C13.4217 1.63108 13.038 1.25 12.4791 1.25C11.912 1.25 11.5366 1.63108 11.5366 2.20676V4.79324H8.98424C8.38369 4.79324 8 5.15811 8 5.69324C8 6.23649 8.38369 6.59324 8.98424 6.59324H11.5366V9.29324C11.5366 9.87703 11.9203 10.25 12.4791 10.25C13.038 10.25 13.4217 9.87703 13.4217 9.29324Z" fill="white"/>
<circle cx="9" cy="9.25" r="8.25" stroke="#090909" stroke-width="1.5"/>
</g>
<defs>
<clipPath id="clip0">
<path d="M0 9.25C0 4.27944 4.02944 0.25 9 0.25C13.9706 0.25 18 4.27944 18 9.25C18 14.2206 13.9706 18.25 9 18.25C4.02944 18.25 0 14.2206 0 9.25Z" fill="white"/>
</clipPath>
</defs>
</svg>
